<svg width="279" height="275" viewBox="0 0 279 275" fill="none" xmlns="http://www.w3.org/2000/svg">
<path fill-rule="evenodd" clip-rule="evenodd" d="M106.538 89.4184L115.769 84.6735L139.462 103.653L161.049 81.8265L97.3077 82.4592V215H73V103.653L93.9231 82.4592L73 81.8265V60H179.154C193.185 60 199.154 69.9116 200.385 74.8673V152.051C200.897 157.112 196.877 167.298 176.692 167.551H162.231V170.714L205 215H173.923L109.615 148.571H163.462L139.462 123.898L115.769 142.878L106.538 137.5V89.4184ZM115.769 99.5408V128.01L129.615 114.092L115.769 99.5408ZM176.692 94.1633L152.692 114.092L176.692 133.388V94.1633Z" fill="black"/>
<path d="M272.5 137.5C272.5 209.761 213.043 268.5 139.5 268.5C65.9573 268.5 6.5 209.761 6.5 137.5C6.5 65.2389 65.9573 6.5 139.5 6.5C213.043 6.5 272.5 65.2389 272.5 137.5Z" stroke="black" stroke-width="13"/>
</svg>
