<svg width="231" height="255" viewBox="0 0 231 255" fill="none" xmlns="http://www.w3.org/2000/svg">
<path d="M212 28.5L173.5 14.5L148.08 39.5M212 28.5V150.5M212 28.5C210 20.6667 200.3 5 177.5 5C154.7 5 53 5 5 5V39.5L39 40.5L5 74V250H44.5V40.5L148.08 39.5M212 150.5L173.5 166.5L152 145M212 150.5C212.833 158.5 206.3 174.6 173.5 175H150V180L219.5 250H169L64.5 145H152M148.08 39.5L113 74L74.5 44L59.5 51.5V127.5L74.5 136L113 106L152 145M74.5 67.5V112.5L97 90.5L74.5 67.5ZM134.5 90.5L173.5 59V121L134.5 90.5Z" stroke="black" stroke-width="9"/>
</svg>
