<svg width="181" height="218" viewBox="0 0 181 218" fill="none" xmlns="http://www.w3.org/2000/svg">
<g filter="url(#filter0_d_19_39)">
<g filter="url(#filter1_d_19_39)">
<path d="M4.1548 40.2293C5.61758 39.0378 9.85962 37.3698 15.1256 40.2293C20.3916 43.0888 24.146 44.1611 25.365 44.3398C29.8752 46.6036 39.883 51.2383 43.8325 51.6673C47.782 52.0962 60.4106 49.4631 66.2312 48.0929C70.3148 47.1695 79.9447 44.6079 85.7958 41.7484C91.6469 38.8889 105.97 25.6042 112.4 19.3192C113.314 16.43 116.697 12.0811 122.914 17.8001C125.578 20.2513 125.631 22.8704 125.839 25.7531C126.117 29.596 125.783 33.3615 124.651 35.4039C125.623 35.5357 126.247 36.6484 127.211 36.8336C130.385 37.444 133.634 37.3514 134.616 38.174C135.152 38.6231 135.337 44.0699 133.244 49.5227C130.34 57.0907 124.742 65.2499 124.742 65.2499L114.228 82.0494C112.278 90.4492 108.085 112.038 106.915 131.197C105.744 150.356 96.0657 180.94 91.3726 193.838C75.1692 196.543 60.3291 188.376 48.0658 176.502C33.7593 162.65 22.9598 143.755 17.594 131.197C20.0929 128.546 24.853 122.922 23.9022 121.636C22.7137 120.027 18.5083 106.802 20.3367 102.155C22.1652 97.5086 21.7081 89.5556 20.3367 84.6408C18.9654 79.7261 16.2227 75.973 15.1256 74.1858C14.2479 72.756 12.3793 69.0623 11.0398 67.4539C7.83999 63.6114 6.19438 56.8201 5.46298 50.833C4.90443 46.2608 3.85006 42.076 4.1548 40.2293Z" fill="#FF6B18"/>
</g>
<path d="M106.549 30.3104C105.159 29.3096 116.758 21.6128 122.731 17.8895C125.217 19.6052 126.144 24.0255 126.296 26.0212L119.622 48.7184L127.576 42.2846C128.368 41.1825 129.862 37.4592 134.25 41.0335C138.638 44.6079 122.7 69.42 114.228 82.5856C111.181 98.3426 105.397 130.875 106.64 134.95C107.883 139.025 99.9661 166.97 95.8521 180.434L91.4638 193.927C77.5674 199.074 56.662 184.455 47.9463 176.502C47.9768 176.532 72.7768 173.089 83.2357 129.052C93.6945 85.0161 83.2052 72.6071 87.8068 75.0794C87.8068 69.3604 83.0162 73.3458 83.2357 69.6285C83.5099 64.9818 101.429 46.0376 108.103 40.0506C114.777 34.0635 108.286 31.5615 106.549 30.3104Z" fill="white"/>
<path d="M39.7181 71.8625C25.968 71.2191 12.2911 55.6289 7.17139 47.9142C10.554 62.3904 27.2213 84.5215 30.9697 86.3087C33.9684 87.7384 36.4268 76.2411 39.7181 71.8625Z" fill="black"/>
<path d="M34.8726 65.9647C26.3154 63.4627 19.9097 53.9013 17.7765 49.4333C22.5419 51.2905 37.4003 53.3884 42.2148 56.284C49.0752 60.41 45.5277 65.4821 48.769 68.02C47.7024 68.3774 43.4299 68.4668 34.8726 65.9647Z" fill="black"/>
<path d="M39.7181 71.8625C25.968 71.2191 12.2911 55.6289 7.17139 47.9142C10.554 62.3904 27.2213 84.5215 30.9697 86.3087C33.9684 87.7384 36.4268 76.2411 39.7181 71.8625Z" stroke="black"/>
<path d="M34.8726 65.9647C26.3154 63.4627 19.9097 53.9013 17.7765 49.4333C22.5419 51.2905 37.4003 53.3884 42.2148 56.284C49.0752 60.41 45.5277 65.4821 48.769 68.02C47.7024 68.3774 43.4299 68.4668 34.8726 65.9647Z" stroke="black"/>
<path d="M81.2245 53.2757C77.3057 48.6351 73.5449 51.4588 72.3564 53.2757C72.3564 57.4256 77.2472 57.7328 79.7617 56.2246C80.9291 55.5244 82.7318 55.0606 81.2245 53.2757Z" fill="black"/>
<path d="M74.4873 53.3351C75.4015 53.1564 77.7984 52.7742 78.6928 53.9606C81.2526 57.3563 76.3767 53.9308 74.4873 53.3351Z" fill="#FF1F00"/>
</g>
<defs>
<filter id="filter0_d_19_39" x="4" y="-1.90735e-06" width="177" height="218" filterUnits="userSpaceOnUse" color-interpolation-filters="sRGB">
<feFlood flood-opacity="0" result="BackgroundImageFix"/>
<feColorMatrix in="SourceAlpha" type="matrix" values="0 0 0 0 0 0 0 0 0 0 0 0 0 0 0 0 0 0 127 0" result="hardAlpha"/>
<feOffset dx="27" dy="4"/>
<feGaussianBlur stdDeviation="9.5"/>
<feComposite in2="hardAlpha" operator="out"/>
<feColorMatrix type="matrix" values="0 0 0 0 0 0 0 0 0 0 0 0 0 0 0 0 0 0 0.25 0"/>
<feBlend mode="normal" in2="BackgroundImageFix" result="effect1_dropShadow_19_39"/>
<feBlend mode="normal" in="SourceGraphic" in2="effect1_dropShadow_19_39" result="shape"/>
</filter>
<filter id="filter1_d_19_39" x="0.100586" y="15" width="138.869" height="187.357" filterUnits="userSpaceOnUse" color-interpolation-filters="sRGB">
<feFlood flood-opacity="0" result="BackgroundImageFix"/>
<feColorMatrix in="SourceAlpha" type="matrix" values="0 0 0 0 0 0 0 0 0 0 0 0 0 0 0 0 0 0 127 0" result="hardAlpha"/>
<feOffset dy="4"/>
<feGaussianBlur stdDeviation="2"/>
<feComposite in2="hardAlpha" operator="out"/>
<feColorMatrix type="matrix" values="0 0 0 0 0 0 0 0 0 0 0 0 0 0 0 0 0 0 0.25 0"/>
<feBlend mode="normal" in2="BackgroundImageFix" result="effect1_dropShadow_19_39"/>
<feBlend mode="normal" in="SourceGraphic" in2="effect1_dropShadow_19_39" result="shape"/>
</filter>
</defs>
</svg>
